<?xml version="1.0" encoding="iso-8859-1"?>
<!-- Generator: Adobe Illustrator 19.0.0, SVG Export Plug-In . SVG Version: 6.00 Build 0)  -->
<svg version="1.1" id="Layer_1" xmlns="http://www.w3.org/2000/svg" xmlns:xlink="http://www.w3.org/1999/xlink" x="0px" y="0px"
	 viewBox="0 0 512 512" style="enable-background:new 0 0 512 512;" xml:space="preserve">
<g>
	<path style="fill:#707487;" d="M497.821,132.414h-47.614v35.31l49.619-7.089c6.986-0.998,12.174-6.98,12.174-14.037v-0.006
		C512,138.762,505.652,132.414,497.821,132.414z"/>
	<path style="fill:#707487;" d="M467.862,273.655h-17.655v52.966h17.655c4.875,0,8.828-3.953,8.828-8.828v-35.31
		C476.69,277.608,472.737,273.655,467.862,273.655z"/>
	<path style="fill:#707487;" d="M26.483,388.414v26.483c0,9.75,7.905,17.655,17.655,17.655h36.825c4.683,0,9.173-1.86,12.484-5.172
		l12.483-12.483h247.172l12.483,12.483c3.311,3.31,7.801,5.172,12.484,5.172h36.825c9.75,0,17.655-7.905,17.655-17.655v-26.483
		H26.483z"/>
</g>
<path style="fill:#AFB9D2;" d="M414.897,79.448H44.138c-4.875,0-8.828,3.953-8.828,8.828v17.655h388.414V88.276
	C423.724,83.401,419.772,79.448,414.897,79.448z"/>
<path style="fill:#FFE164;" d="M432.552,397.241H26.483C11.857,397.241,0,385.385,0,370.759V123.586
	c0-14.626,11.857-26.483,26.483-26.483h406.069c14.626,0,26.483,11.857,26.483,26.483v247.172
	C459.034,385.385,447.178,397.241,432.552,397.241z"/>
<path style="fill:#FFF096;" d="M273.655,273.655h-88.276c-14.626,0-26.483-11.857-26.483-26.483l0,0
	c0-14.626,11.857-26.483,26.483-26.483h88.276c14.626,0,26.483,11.857,26.483,26.483l0,0
	C300.138,261.799,288.281,273.655,273.655,273.655z"/>
<g>
</g>
<g>
</g>
<g>
</g>
<g>
</g>
<g>
</g>
<g>
</g>
<g>
</g>
<g>
</g>
<g>
</g>
<g>
</g>
<g>
</g>
<g>
</g>
<g>
</g>
<g>
</g>
<g>
</g>
</svg>
